<svg class="icon" viewBox="0 0 1024 1024" xmlns="http://www.w3.org/2000/svg" width="200" height="200"><defs><style/></defs><path d="M669.838 28.444l268.829 268.8v641.423a56.889 56.889 0 01-56.89 56.889H142.223a56.889 56.889 0 01-56.889-56.89V85.334a56.889 56.889 0 0156.89-56.889h527.615z"/><path d="M726.756 297.244a56.889 56.889 0 01-56.89-56.888l.03-211.912 268.77 268.8h-211.91z"/><path d="M701.61 426.667c39.254 0 77.74 31.203 85.192 69.603 0 0 9.642 37.063 9.642 72.619s-9.642 72.619-9.642 72.619c-7.766 38.428-45.91 69.603-85.191 69.603H512v23.694h142.222V758.5c0 37.632-28.672 74.524-64.853 84.11l-4.75 1.08s-37.063 9.643-72.619 9.643-72.619-9.642-72.619-9.642c-38.428-7.766-69.603-45.91-69.603-85.191v-82.944a94.777 94.777 0 0194.72-94.806h95.004a118.5 118.5 0 00118.414-118.528v-35.555zM571.25 770.36a23.694 23.694 0 100 47.417 23.694 23.694 0 000-47.417zM512 284.444c35.556 0 72.619 9.643 72.619 9.643 38.428 7.765 69.603 45.91 69.603 85.191v82.944a94.777 94.777 0 01-94.72 94.806h-95.004a118.5 118.5 0 00-118.414 118.528v35.555h-23.695c-39.253 0-77.738-31.203-85.19-69.603 0 0-9.643-37.064-9.643-72.62s9.642-72.618 9.642-72.618c7.766-38.428 45.91-69.603 85.191-69.603h47.389v-.029l142.222.029v-23.695l-142.222-.028v-23.666c0-37.632 28.672-74.524 64.853-84.11l4.75-1.08s37.063-9.644 72.619-9.644zM452.75 320a23.694 23.694 0 100 47.417 23.694 23.694 0 000-47.417z"/></svg>